<svg xmlns="http://www.w3.org/2000/svg" xmlns:xlink="http://www.w3.org/1999/xlink" xmlns:lucid="lucid" width="862" height="1042"><g transform="translate(40.999999999999886 -359)" lucid:page-tab-id="0_0"><path d="M241.5 916.9h241.12" stroke="#3a414a" fill="none"/><path d="M241.5 917.37h-.5v-.95h.5z" stroke="#3a414a" stroke-width=".05" fill="#3a414a"/><path d="M497.38 916.9l-14.26 4.63v-9.27z" stroke="#3a414a" fill="#3a414a"/><path d="M241.5 500H364a6 6 0 0 1 6 6v344.9a6 6 0 0 0 6 6h106.62" stroke="#3a414a" fill="none"/><path d="M241.5 500.48h-.5v-.96h.5z" stroke="#3a414a" stroke-width=".05" fill="#3a414a"/><path d="M497.38 856.9l-14.26 4.63v-9.27z" stroke="#3a414a" fill="#3a414a"/><path d="M241.5 1260H364a6 6 0 0 0 6-6V922.9a6 6 0 0 1 6-6h106.62" stroke="#3a414a" fill="none"/><path d="M241.5 1260.47h-.5v-.94h.5z" stroke="#3a414a" stroke-width=".05" fill="#3a414a"/><path d="M497.38 916.9l-14.26 4.63v-9.27z" stroke="#3a414a" fill="#3a414a"/><path d="M520 564.45a6 6 0 0 1 6-6h288a6 6 0 0 1 6 6v428a6 6 0 0 1-6 6H526a6 6 0 0 1-6-6z" stroke="#000" stroke-width="2" fill="#fff"/><use xlink:href="#a" transform="matrix(1,0,0,1,525,563.4490104166667) translate(0 21.52777777777778)"/><path d="M610 638.45h120v120H610v-120z" stroke="#000" stroke-opacity="0" stroke-width="3.57" fill="#df6500"/><path d="M697.12 651.3h20.04v22.8h-20.04v-22.8zM717.16 722.78v22.83h-20V722.8h8.6v-22.92H631.4V674.1h-8.58v-22.8h20v22.8h-8.6v22.93h74.34v25.75h8.58z" stroke="#000" stroke-opacity="0" stroke-width="3.57" fill="#fff"/><path d="M660.04 651.3h20.04v22.8h-20.04v-22.8zM622.84 722.7h20.04v22.8h-20.04v-22.8zM660.04 722.7h20.04v22.8h-20.04v-22.8z" stroke="#000" stroke-opacity="0" stroke-width="3.57" fill="#fff"/><use xlink:href="#b" transform="matrix(1,0,0,1,580,767.4490104166667) translate(3.8834635416666714 21.52777777777778)"/><path d="M540 836.9c11.05 0 20 8.95 20 20 0 11.04-8.95 20-20 20h-20c-11.05 0-20-8.96-20-20 0-11.05 8.95-20 20-20z" stroke="#000" stroke-width="2" fill="#fff"/><path d="M580 844.45a6 6 0 0 1 6-6h131.37a6 6 0 0 1 6 6v27.32a6 6 0 0 1-6 6H586a6 6 0 0 1-6-6z" fill="none"/><use xlink:href="#c" transform="matrix(1,0,0,1,585.0000000000001,843.4490104166669) translate(0 23.631727430555557)"/><use xlink:href="#d" transform="matrix(1,0,0,1,585.0000000000001,843.4490104166669) translate(53.342013888888886 23.631727430555557)"/><path d="M540 896.9c11.05 0 20 8.95 20 20 0 11.04-8.95 20-20 20h-20c-11.05 0-20-8.96-20-20 0-11.05 8.95-20 20-20z" stroke="#000" stroke-width="2" fill="#fff"/><path d="M580 904.45a6 6 0 0 1 6-6h198.04a6 6 0 0 1 6 6v27.32a6 6 0 0 1-6 6H586a6 6 0 0 1-6-6z" fill="none"/><use xlink:href="#c" transform="matrix(1,0,0,1,585.0000000000002,903.4490104166669) translate(0 23.631727430555557)"/><use xlink:href="#e" transform="matrix(1,0,0,1,585.0000000000002,903.4490104166669) translate(53.342013888888886 23.631727430555557)"/><path d="M-40 366a6 6 0 0 1 6-6h268a6 6 0 0 1 6 6v268a6 6 0 0 1-6 6H-34a6 6 0 0 1-6-6z" stroke="#000" stroke-width="2" fill="#fff"/><use xlink:href="#f" transform="matrix(1,0,0,1,-34.999999999999886,365) translate(0 21.52777777777778)"/><path d="M26.15 426.15h147.7v147.7H26.15v-147.7z" stroke="#000" stroke-opacity="0" stroke-width="3.57" fill="#df6500"/><path d="M161.44 499.93c0 10.97-2.87 21.25-7.95 30.2h-36.22l42.84-42.83c.88 4.07 1.32 8.3 1.32 12.63zM159.22 483.3l-25.84 25.86V448.3c12.43 8.04 21.8 20.45 25.84 35zM129.83 446.24v36.67L86.85 439.9c4.26-.93 8.64-1.42 13.16-1.42 10.8 0 20.98 2.8 29.83 7.78zM108.86 466.87h-60.7c7.95-12.42 20.27-21.8 34.72-26l25.98 26zM82.62 470.3L39.92 513c-.98-4.23-1.46-8.63-1.46-13.1 0-10.72 2.73-20.8 7.64-29.6h36.52zM66.6 491.43v60.1c-12.3-7.92-21.54-20.12-25.7-34.43l25.7-25.67zM112.55 560.12c-4.08.88-8.3 1.32-12.63 1.32-10.85 0-21.05-2.8-29.9-7.8v-36.06l42.53 42.54zM151.54 533.67c-8.03 12.24-20.35 21.52-34.85 25.56l-25.56-25.56h60.4z" stroke="#000" stroke-opacity="0" stroke-width="3.57" fill="#fff"/><use xlink:href="#g" transform="matrix(1,0,0,1,-3.8461538461538396,582.8461538461538) translate(24.10633680555557 21.52777777777778)"/><path d="M-40 782.9a6 6 0 0 1 6-6h268a6 6 0 0 1 6 6v268a6 6 0 0 1-6 6H-34a6 6 0 0 1-6-6z" stroke="#000" stroke-width="2" fill="#fff"/><use xlink:href="#h" transform="matrix(1,0,0,1,-34.999999999999886,781.8980208333335) translate(0 21.52777777777778)"/><path d="M40 856.9h120v120H40v-120z" stroke="#000" stroke-opacity="0" stroke-width="3.57" fill="#df6500"/><path d="M150.4 956.86H49.6l37.6-65.04 23.9 41.5 12.9-22.25 26.4 45.8zM139.24 885.5c0 6.32-5.1 11.48-11.4 11.48-6.3 0-11.4-5.16-11.4-11.5 0-6.26 5.1-11.42 11.4-11.42 6.3 0 11.4 5.16 11.4 11.44z" stroke="#000" stroke-opacity="0" stroke-width="3.57" fill="#fff"/><use xlink:href="#i" transform="matrix(1,0,0,1,10,985.8980208333335) translate(44.41623263888889 21.52777777777778)"/><path d="M-40 1126a6 6 0 0 1 6-6h268a6 6 0 0 1 6 6v268a6 6 0 0 1-6 6H-34a6 6 0 0 1-6-6z" stroke="#000" stroke-width="2" fill="#fff"/><use xlink:href="#h" transform="matrix(1,0,0,1,-34.999999999999886,1125) translate(0 21.52777777777778)"/><path d="M40 1200h120v120H40v-120z" stroke="#000" stroke-opacity="0" stroke-width="3.57" fill="#df6500"/><path d="M150.4 1299.96H49.6l37.6-65.04 23.9 41.5 12.9-22.25 26.4 45.8zM139.24 1228.6c0 6.32-5.1 11.48-11.4 11.48-6.3 0-11.4-5.16-11.4-11.48 0-6.28 5.1-11.44 11.4-11.44 6.3 0 11.4 5.16 11.4 11.44z" stroke="#000" stroke-opacity="0" stroke-width="3.57" fill="#fff"/><use xlink:href="#j" transform="matrix(1,0,0,1,10,1329) translate(10.80078125 21.52777777777778)"/><path d="M540 836.9c11.05 0 20 8.95 20 20 0 11.04-8.95 20-20 20h-20c-11.05 0-20-8.96-20-20 0-11.05 8.95-20 20-20z" stroke="#000" stroke-width="2" fill="#fff"/><path d="M580 844.45a6 6 0 0 1 6-6h131.37a6 6 0 0 1 6 6v27.32a6 6 0 0 1-6 6H586a6 6 0 0 1-6-6z" fill="none"/><use xlink:href="#c" transform="matrix(1,0,0,1,585.0000000000001,843.4490104166669) translate(0 23.631727430555557)"/><use xlink:href="#d" transform="matrix(1,0,0,1,585.0000000000001,843.4490104166669) translate(53.342013888888886 23.631727430555557)"/><path d="M540 896.9c11.05 0 20 8.95 20 20 0 11.04-8.95 20-20 20h-20c-11.05 0-20-8.96-20-20 0-11.05 8.95-20 20-20z" stroke="#000" stroke-width="2" fill="#fff"/><path d="M580 904.45a6 6 0 0 1 6-6h198.04a6 6 0 0 1 6 6v27.32a6 6 0 0 1-6 6H586a6 6 0 0 1-6-6z" fill="none"/><g><use xlink:href="#c" transform="matrix(1,0,0,1,585.0000000000002,903.4490104166669) translate(0 23.631727430555557)"/><use xlink:href="#e" transform="matrix(1,0,0,1,585.0000000000002,903.4490104166669) translate(53.342013888888886 23.631727430555557)"/></g><defs><path fill="#3a414a" d="M180 0v-1490h510c348 0 508 194 508 460 0 198-88 351-276 417L1256 0h-220L726-579c-117 2-238 0-356 1V0H180zm190-747h312c235 0 327-108 327-283 0-177-92-293-329-293H370v576" id="k"/><path fill="#3a414a" d="M628 24c-324 0-524-230-524-574 0-343 198-582 503-582 237 0 487 146 487 559v75H286c9 234 145 362 343 362 132 0 231-58 273-172l174 48C1024-91 857 24 628 24zM287-650h624c-17-190-120-322-304-322-192 0-309 151-320 322" id="l"/><path fill="#3a414a" d="M338-670V0H158v-1118h173l1 207c72-158 192-221 342-221 226 0 378 139 378 422V0H872v-695c0-172-96-275-252-275-161 0-282 109-282 300" id="m"/><path fill="#3a414a" d="M577 24c-279 0-473-224-473-580 0-354 195-576 474-576 218 0 287 134 324 193h14v-551h180V0H922v-173h-20C865-111 790 24 577 24zm27-161c203 0 314-172 314-421 0-247-108-413-314-413-212 0-317 181-317 413 0 235 108 421 317 421" id="n"/><path fill="#3a414a" d="M158 0v-1118h174v172h12c41-113 157-188 290-188 26 0 70 2 91 3v181c-11-2-60-10-108-10-161 0-279 109-279 260V0H158" id="o"/><path fill="#3a414a" d="M180 0v-1490h510c348 0 508 209 508 474 0 266-160 477-507 477H370V0H180zm190-706h312c236 0 327-133 327-310 0-176-91-307-329-307H370v617" id="p"/><path fill="#3a414a" d="M613 24c-304 0-509-231-509-576 0-350 205-580 509-580 305 0 511 230 511 580 0 345-206 576-511 576zm0-161c226 0 329-195 329-415 0-222-103-419-329-419-223 0-326 196-326 419 0 220 103 415 326 415" id="q"/><path fill="#3a414a" d="M537 14c-226 0-379-139-379-422v-710h180v695c0 172 97 275 253 275 160 0 281-109 281-300v-670h181V0H879v-209C806-46 684 14 537 14" id="r"/><path fill="#3a414a" d="M613 24c-304 0-509-231-509-576 0-350 205-580 509-580 216 0 392 114 453 309l-173 49c-33-115-133-197-280-197-223 0-326 196-326 419 0 220 103 415 326 415 150 0 252-85 285-206l172 49C1010-95 832 24 613 24" id="s"/><path fill="#3a414a" d="M598-1118v154H368v674c0 100 37 144 132 144 23 0 62-6 92-12L629-6c-37 13-88 20-134 20-193 0-307-107-307-290v-688H20v-154h168v-266h180v266h230" id="t"/><g id="a"><use transform="matrix(0.010850694444444444,0,0,0.010850694444444444,0,0)" xlink:href="#k"/><use transform="matrix(0.010850694444444444,0,0,0.010850694444444444,13.975694444444445,0)" xlink:href="#l"/><use transform="matrix(0.010850694444444444,0,0,0.010850694444444444,26.931423611111104,0)" xlink:href="#m"/><use transform="matrix(0.010850694444444444,0,0,0.010850694444444444,40.060763888888886,0)" xlink:href="#n"/><use transform="matrix(0.010850694444444444,0,0,0.010850694444444444,53.66753472222221,0)" xlink:href="#l"/><use transform="matrix(0.010850694444444444,0,0,0.010850694444444444,66.62326388888889,0)" xlink:href="#o"/><use transform="matrix(0.010850694444444444,0,0,0.010850694444444444,75.33637152777779,0)" xlink:href="#p"/><use transform="matrix(0.010850694444444444,0,0,0.010850694444444444,89.52907986111111,0)" xlink:href="#o"/><use transform="matrix(0.010850694444444444,0,0,0.010850694444444444,97.52604166666666,0)" xlink:href="#q"/><use transform="matrix(0.010850694444444444,0,0,0.010850694444444444,110.85069444444444,0)" xlink:href="#n"/><use transform="matrix(0.010850694444444444,0,0,0.010850694444444444,124.45746527777777,0)" xlink:href="#r"/><use transform="matrix(0.010850694444444444,0,0,0.010850694444444444,137.59765625,0)" xlink:href="#s"/><use transform="matrix(0.010850694444444444,0,0,0.010850694444444444,150.29296875,0)" xlink:href="#t"/></g><path d="M692-1560L212 224H46l480-1784h166" id="u"/><path d="M180 0v-1490h510c348 0 508 194 508 460 0 198-88 351-276 417L1256 0h-220L726-579c-117 2-238 0-356 1V0H180zm190-747h312c235 0 327-108 327-283 0-177-92-293-329-293H370v576" id="v"/><path d="M628 24c-324 0-524-230-524-574 0-343 198-582 503-582 237 0 487 146 487 559v75H286c9 234 145 362 343 362 132 0 231-58 273-172l174 48C1024-91 857 24 628 24zM287-650h624c-17-190-120-322-304-322-192 0-309 151-320 322" id="w"/><path d="M338-670V0H158v-1118h173l1 207c72-158 192-221 342-221 226 0 378 139 378 422V0H872v-695c0-172-96-275-252-275-161 0-282 109-282 300" id="x"/><path d="M577 24c-279 0-473-224-473-580 0-354 195-576 474-576 218 0 287 134 324 193h14v-551h180V0H922v-173h-20C865-111 790 24 577 24zm27-161c203 0 314-172 314-421 0-247-108-413-314-413-212 0-317 181-317 413 0 235 108 421 317 421" id="y"/><path d="M158 0v-1118h174v172h12c41-113 157-188 290-188 26 0 70 2 91 3v181c-11-2-60-10-108-10-161 0-279 109-279 260V0H158" id="z"/><path d="M783 20c-382 0-661-292-661-764 0-473 279-766 661-766 302 0 548 182 601 489h-190c-42-204-217-313-411-313-268 0-476 208-476 590 0 381 209 588 476 588 195 0 369-110 411-313h190c-52 303-296 489-601 489" id="A"/><path d="M471 26C259 26 90-98 90-318c0-256 228-303 435-329 202-27 287-16 287-108 0-139-79-219-234-219-161 0-248 86-283 164l-173-57c86-203 278-265 451-265 150 0 419 46 419 395V0H815v-152h-12C765-73 660 26 471 26zm31-159c199 0 310-134 310-271v-155c-30 35-226 55-295 64-131 17-246 59-246 186 0 116 97 176 231 176" id="B"/><path d="M158 0v-1118h175l1 205c55-151 181-225 313-225 147 0 245 90 285 228 53-141 190-228 352-228 194 0 352 125 352 384V0h-181v-749c0-161-105-225-225-225-151 0-243 103-243 244V0H807v-767c0-124-93-207-219-207-131 0-250 92-250 270V0H158" id="C"/><g id="b"><use transform="matrix(0.010850694444444444,0,0,0.010850694444444444,0,0)" xlink:href="#u"/><use transform="matrix(0.010850694444444444,0,0,0.010850694444444444,8.0078125,0)" xlink:href="#v"/><use transform="matrix(0.010850694444444444,0,0,0.010850694444444444,21.983506944444443,0)" xlink:href="#w"/><use transform="matrix(0.010850694444444444,0,0,0.010850694444444444,34.93923611111111,0)" xlink:href="#x"/><use transform="matrix(0.010850694444444444,0,0,0.010850694444444444,48.068576388888886,0)" xlink:href="#y"/><use transform="matrix(0.010850694444444444,0,0,0.010850694444444444,61.67534722222221,0)" xlink:href="#w"/><use transform="matrix(0.010850694444444444,0,0,0.010850694444444444,74.63107638888889,0)" xlink:href="#z"/><use transform="matrix(0.010850694444444444,0,0,0.010850694444444444,82.24826388888889,0)" xlink:href="#u"/><use transform="matrix(0.010850694444444444,0,0,0.010850694444444444,90.25607638888889,0)" xlink:href="#A"/><use transform="matrix(0.010850694444444444,0,0,0.010850694444444444,106.48871527777777,0)" xlink:href="#B"/><use transform="matrix(0.010850694444444444,0,0,0.010850694444444444,118.96701388888889,0)" xlink:href="#C"/><use transform="matrix(0.010850694444444444,0,0,0.010850694444444444,138.43315972222223,0)" xlink:href="#w"/><use transform="matrix(0.010850694444444444,0,0,0.010850694444444444,151.38888888888889,0)" xlink:href="#z"/><use transform="matrix(0.010850694444444444,0,0,0.010850694444444444,159.75477430555554,0)" xlink:href="#B"/></g><path d="M1073-1076c-39-17-131-26-190-26-175 1-289 86-369 192-2-58-6-115-9-172H329V0h186v-694c49-135 146-224 329-224 78 0 136 8 204 23" id="D"/><path d="M1093-488c14-367-120-614-465-614-235 0-377 144-451 322-54 134-60 346-4 486C248-110 401 15 652 20c200 6 350-98 427-209l-113-88c-63 81-164 151-304 146-216-8-323-147-342-357h773zM326-640c30-173 113-310 302-310 186 0 270 130 280 310H326" id="E"/><path d="M203-1536v161h368v1215H203V0h906v-160H756v-1376H203" id="F"/><g id="c"><use transform="matrix(0.010850694444444444,0,0,0.010850694444444444,0,0)" xlink:href="#D"/><use transform="matrix(0.010850694444444444,0,0,0.010850694444444444,13.335503472222221,0)" xlink:href="#E"/><use transform="matrix(0.010850694444444444,0,0,0.010850694444444444,26.671006944444443,0)" xlink:href="#F"/></g><path d="M635-950c155 0 251 92 265 240h175c-7-192-116-306-263-362-117-46-287-38-392 14-181 88-282 268-277 538 5 245 106 413 277 496 104 50 263 60 380 14 139-57 262-153 275-331H900c-15 137-122 211-265 211-236 0-311-189-306-432 4-219 85-388 306-388" id="G"/><path d="M858-118c4 42 11 89 27 118h193v-16c-23-54-38-146-38-220v-503c-8-252-177-363-431-363-195 0-331 80-401 204-20 38-29 77-30 116h186c11-119 106-171 235-171 150 0 250 65 256 212v85H653c-278 5-497 87-497 356C156-87 313 20 531 20c150 0 249-63 327-138zm-3-188c-54 96-151 165-297 165-130 0-217-58-217-185 0-223 278-197 514-199v219" id="H"/><path d="M679-986c-32-74-94-116-199-116-108 1-174 51-216 122l-5-102H93V0h176v-861c20-53 62-85 137-84 86-1 121 48 121 134V0h176v-830c0-73 52-114 134-115 87-1 125 48 125 135V0h176v-808c-1-181-70-294-247-294-106 0-171 49-212 116" id="I"/><g id="d"><use transform="matrix(0.010850694444444444,0,0,0.010850694444444444,0,0)" xlink:href="#G"/><use transform="matrix(0.010850694444444444,0,0,0.010850694444444444,13.335503472222221,0)" xlink:href="#H"/><use transform="matrix(0.010850694444444444,0,0,0.010850694444444444,26.671006944444443,0)" xlink:href="#I"/><use transform="matrix(0.010850694444444444,0,0,0.010850694444444444,40.006510416666664,0)" xlink:href="#E"/><use transform="matrix(0.010850694444444444,0,0,0.010850694444444444,53.342013888888886,0)" xlink:href="#D"/><use transform="matrix(0.010850694444444444,0,0,0.010850694444444444,66.67751736111111,0)" xlink:href="#H"/></g><path d="M408-1060c-181 87-288 266-286 531 4 253 110 424 286 507 117 56 295 56 412 0 181-86 288-263 286-529-4-253-110-426-286-509-117-56-295-57-412 0zm72 898c-118-66-176-206-173-389 2-172 61-303 172-367 72-43 197-43 269 0 117 66 175 205 173 389-7 222-88 389-306 399-51 0-96-11-135-32" id="J"/><path d="M867-975c-67-77-156-127-295-127-228 0-344 148-402 330-41 135-43 324 0 460C230-131 342 20 570 20c143 0 236-52 304-134l8 114h170v-1536H867v561zM616-137c-221-6-292-184-292-413 0-218 77-387 294-395 127-1 203 69 249 151v502c-46 88-120 159-251 155" id="K"/><path d="M531 0h161l459-1456H954C839-1070 725-683 610-298c-114-386-227-772-341-1158H71" id="L"/><path d="M397-791c2-179 304-197 417-101 36 29 66 71 68 128h185c-17-232-189-338-433-338-187 0-323 74-391 194-40 71-42 172-1 240 73 117 224 164 385 199 110 24 205 46 253 123 9 18 13 37 13 59-11 122-121 157-254 157-153 0-265-60-279-203H175c9 179 125 271 268 323 164 58 409 24 512-58 66-52 123-123 123-232 0-278-319-281-548-353-73-23-130-50-133-138" id="M"/><g id="e"><use transform="matrix(0.010850694444444444,0,0,0.010850694444444444,0,0)" xlink:href="#J"/><use transform="matrix(0.010850694444444444,0,0,0.010850694444444444,13.335503472222221,0)" xlink:href="#D"/><use transform="matrix(0.010850694444444444,0,0,0.010850694444444444,26.671006944444443,0)" xlink:href="#K"/><use transform="matrix(0.010850694444444444,0,0,0.010850694444444444,40.006510416666664,0)" xlink:href="#E"/><use transform="matrix(0.010850694444444444,0,0,0.010850694444444444,53.342013888888886,0)" xlink:href="#D"/><use transform="matrix(0.010850694444444444,0,0,0.010850694444444444,66.67751736111111,0)" xlink:href="#E"/><use transform="matrix(0.010850694444444444,0,0,0.010850694444444444,80.01302083333334,0)" xlink:href="#K"/><use transform="matrix(0.010850694444444444,0,0,0.010850694444444444,93.34852430555557,0)" xlink:href="#L"/><use transform="matrix(0.010850694444444444,0,0,0.010850694444444444,106.6840277777778,0)" xlink:href="#H"/><use transform="matrix(0.010850694444444444,0,0,0.010850694444444444,120.01953125000003,0)" xlink:href="#D"/><use transform="matrix(0.010850694444444444,0,0,0.010850694444444444,133.35503472222226,0)" xlink:href="#M"/></g><path fill="#3a414a" d="M783 20c-382 0-661-292-661-764 0-473 279-766 661-766 302 0 548 182 601 489h-190c-42-204-217-313-411-313-268 0-476 208-476 590 0 381 209 588 476 588 195 0 369-110 411-313h190c-52 303-296 489-601 489" id="N"/><path fill="#3a414a" d="M471 26C259 26 90-98 90-318c0-256 228-303 435-329 202-27 287-16 287-108 0-139-79-219-234-219-161 0-248 86-283 164l-173-57c86-203 278-265 451-265 150 0 419 46 419 395V0H815v-152h-12C765-73 660 26 471 26zm31-159c199 0 310-134 310-271v-155c-30 35-226 55-295 64-131 17-246 59-246 186 0 116 97 176 231 176" id="O"/><path fill="#3a414a" d="M158 0v-1118h175l1 205c55-151 181-225 313-225 147 0 245 90 285 228 53-141 190-228 352-228 194 0 352 125 352 384V0h-181v-749c0-161-105-225-225-225-151 0-243 103-243 244V0H807v-767c0-124-93-207-219-207-131 0-250 92-250 270V0H158" id="P"/><g id="f"><use transform="matrix(0.010850694444444444,0,0,0.010850694444444444,0,0)" xlink:href="#N"/><use transform="matrix(0.010850694444444444,0,0,0.010850694444444444,16.23263888888889,0)" xlink:href="#O"/><use transform="matrix(0.010850694444444444,0,0,0.010850694444444444,28.7109375,0)" xlink:href="#P"/><use transform="matrix(0.010850694444444444,0,0,0.010850694444444444,48.17708333333333,0)" xlink:href="#l"/><use transform="matrix(0.010850694444444444,0,0,0.010850694444444444,61.1328125,0)" xlink:href="#o"/><use transform="matrix(0.010850694444444444,0,0,0.010850694444444444,69.49869791666666,0)" xlink:href="#O"/></g><path d="M458 0L52-1490h194c108 439 233 855 324 1313 92-459 221-873 331-1313h216c110 438 234 854 330 1307 92-455 216-869 323-1307h196L1558 0h-221l-256-944c-26-95-50-200-73-331-22 122-44 223-73 331L680 0H458" id="Q"/><path d="M613 24c-304 0-509-231-509-576 0-350 205-580 509-580 305 0 511 230 511 580 0 345-206 576-511 576zm0-161c226 0 329-195 329-415 0-222-103-419-329-419-223 0-326 196-326 419 0 220 103 415 326 415" id="R"/><path d="M338-1490V0H158v-1490h180" id="S"/><g id="g"><use transform="matrix(0.010850694444444444,0,0,0.010850694444444444,0,0)" xlink:href="#u"/><use transform="matrix(0.010850694444444444,0,0,0.010850694444444444,8.0078125,0)" xlink:href="#Q"/><use transform="matrix(0.010850694444444444,0,0,0.010850694444444444,28.776041666666664,0)" xlink:href="#R"/><use transform="matrix(0.010850694444444444,0,0,0.010850694444444444,42.10069444444444,0)" xlink:href="#z"/><use transform="matrix(0.010850694444444444,0,0,0.010850694444444444,50.81380208333333,0)" xlink:href="#S"/><use transform="matrix(0.010850694444444444,0,0,0.010850694444444444,56.19574652777778,0)" xlink:href="#y"/><use transform="matrix(0.010850694444444444,0,0,0.010850694444444444,69.8025173611111,0)" xlink:href="#u"/><use transform="matrix(0.010850694444444444,0,0,0.010850694444444444,77.8103298611111,0)" xlink:href="#A"/><use transform="matrix(0.010850694444444444,0,0,0.010850694444444444,94.04296874999997,0)" xlink:href="#B"/><use transform="matrix(0.010850694444444444,0,0,0.010850694444444444,106.52126736111111,0)" xlink:href="#C"/><use transform="matrix(0.010850694444444444,0,0,0.010850694444444444,125.98741319444441,0)" xlink:href="#w"/><use transform="matrix(0.010850694444444444,0,0,0.010850694444444444,138.9431423611111,0)" xlink:href="#z"/><use transform="matrix(0.010850694444444444,0,0,0.010850694444444444,147.30902777777774,0)" xlink:href="#B"/></g><path fill="#3a414a" d="M600 0L52-1490h200c166 485 304 806 458 1336 156-533 285-846 449-1336h202L819 0H600" id="T"/><g id="h"><use transform="matrix(0.010850694444444444,0,0,0.010850694444444444,0,0)" xlink:href="#k"/><use transform="matrix(0.010850694444444444,0,0,0.010850694444444444,13.975694444444445,0)" xlink:href="#l"/><use transform="matrix(0.010850694444444444,0,0,0.010850694444444444,26.931423611111104,0)" xlink:href="#m"/><use transform="matrix(0.010850694444444444,0,0,0.010850694444444444,40.060763888888886,0)" xlink:href="#n"/><use transform="matrix(0.010850694444444444,0,0,0.010850694444444444,53.66753472222221,0)" xlink:href="#l"/><use transform="matrix(0.010850694444444444,0,0,0.010850694444444444,66.62326388888889,0)" xlink:href="#o"/><use transform="matrix(0.010850694444444444,0,0,0.010850694444444444,74.98914930555556,0)" xlink:href="#T"/><use transform="matrix(0.010850694444444444,0,0,0.010850694444444444,89.19270833333333,0)" xlink:href="#O"/><use transform="matrix(0.010850694444444444,0,0,0.010850694444444444,101.67100694444444,0)" xlink:href="#o"/></g><path d="M180 0v-1490h190v1322h690V0H180" id="U"/><g id="i"><use transform="matrix(0.010850694444444444,0,0,0.010850694444444444,0,0)" xlink:href="#U"/><use transform="matrix(0.010850694444444444,0,0,0.010850694444444444,12.565104166666666,0)" xlink:href="#y"/><use transform="matrix(0.010850694444444444,0,0,0.010850694444444444,26.171875,0)" xlink:href="#z"/><use transform="matrix(0.010850694444444444,0,0,0.010850694444444444,34.537760416666664,0)" xlink:href="#A"/><use transform="matrix(0.010850694444444444,0,0,0.010850694444444444,50.77039930555556,0)" xlink:href="#R"/><use transform="matrix(0.010850694444444444,0,0,0.010850694444444444,64.09505208333333,0)" xlink:href="#S"/><use transform="matrix(0.010850694444444444,0,0,0.010850694444444444,69.47699652777777,0)" xlink:href="#R"/><use transform="matrix(0.010850694444444444,0,0,0.010850694444444444,82.80164930555554,0)" xlink:href="#z"/></g><path d="M645 0H180v-1490h484c435 0 692 280 692 742 0 466-257 748-711 748zM370-168h263c363 0 539-218 539-580 0-358-176-574-521-574H370v1154" id="V"/><path d="M158 418v-1536h174v179h20c37-59 106-193 324-193 279 0 474 222 474 576 0 356-194 580-473 580-213 0-288-135-325-197h-14v591H158zm492-555c209 0 317-186 317-421 0-232-105-413-317-413-206 0-314 166-314 413 0 249 111 421 314 421" id="W"/><path d="M598-1118v154H368v674c0 100 37 144 132 144 23 0 62-6 92-12L629-6c-37 13-88 20-134 20-193 0-307-107-307-290v-688H20v-154h168v-266h180v266h230" id="X"/><path d="M338-670V0H158v-1490h180v566c73-149 190-208 336-208 226 0 379 139 379 422V0H872v-695c0-172-96-275-252-275-161 0-282 109-282 300" id="Y"/><path d="M158 0v-1118h180V0H158zm91-1301c-68 0-125-53-125-119s57-119 125-119c69 0 126 53 126 119s-57 119-126 119" id="Z"/><path d="M657 26c-323 0-524-166-541-416h195c15 169 171 246 346 246 202 0 356-106 356-265 5-203-294-238-475-293-239-73-380-191-380-389 0-252 224-419 512-419 294 0 499 171 508 396H992c-17-145-151-228-328-228-193 0-321 102-321 242 0 156 175 211 284 241l149 41c160 44 422 134 422 412 0 244-197 432-541 432" id="aa"/><g id="j"><use transform="matrix(0.010850694444444444,0,0,0.010850694444444444,0,0)" xlink:href="#V"/><use transform="matrix(0.010850694444444444,0,0,0.010850694444444444,16.03732638888889,0)" xlink:href="#w"/><use transform="matrix(0.010850694444444444,0,0,0.010850694444444444,28.99305555555556,0)" xlink:href="#W"/><use transform="matrix(0.010850694444444444,0,0,0.010850694444444444,42.599826388888886,0)" xlink:href="#X"/><use transform="matrix(0.010850694444444444,0,0,0.010850694444444444,49.869791666666664,0)" xlink:href="#Y"/><use transform="matrix(0.010850694444444444,0,0,0.010850694444444444,63.009982638888886,0)" xlink:href="#U"/><use transform="matrix(0.010850694444444444,0,0,0.010850694444444444,75.57508680555556,0)" xlink:href="#Z"/><use transform="matrix(0.010850694444444444,0,0,0.010850694444444444,80.95703125,0)" xlink:href="#x"/><use transform="matrix(0.010850694444444444,0,0,0.010850694444444444,94.08637152777777,0)" xlink:href="#w"/><use transform="matrix(0.010850694444444444,0,0,0.010850694444444444,107.25911458333333,0)" xlink:href="#B"/><use transform="matrix(0.010850694444444444,0,0,0.010850694444444444,119.73741319444444,0)" xlink:href="#z"/><use transform="matrix(0.010850694444444444,0,0,0.010850694444444444,128.10329861111111,0)" xlink:href="#aa"/><use transform="matrix(0.010850694444444444,0,0,0.010850694444444444,142.36111111111111,0)" xlink:href="#V"/></g></defs></g></svg>